# xmcd
#
# Track frame offsets: 
#        182
#        12585
#        36260
#        48712
#        58632
#        71942
#        85127
#        102710
#        115547
#        126995
#        138245
#        148545
#        161177
#        172227
#        185755
#        198047
#        208817
#        224462
#
# Disc length: 3146 seconds
#
# Revision: 9
# Processed by: cddbd v1.5.2PL0 Copyright (c) Steve Scherf et al.
# Submitted via: ExactAudioCopy v0.99pb3
#
DISCID=230c4812
DTITLE=Various Artist - Blues Legends - Volume 2
DYEAR=1991
DGENRE=Blues
TTITLE0=Howlin' Wolf - Goin' Back Home
TTITLE1=B. B. King - You've Done Lost Your Good Thing Now
TTITLE2=Bo Diddley - I'm A Man
TTITLE3=John Lee Hooker - Dimples
TTITLE4=Muddy Waters - Hoochie Coochie Man
TTITLE5=Howlin' Wolf - Worried About You
TTITLE6=B. B. King - Evil Child
TTITLE7=Bo Diddley - Story Of Bo Diddley
TTITLE8=John Lee Hooker - Good Rockin' Mama
TTITLE9=Muddy Waters - I Can't Call Her Sugar
TTITLE10=Howlin' Wolf - Shake For Me
TTITLE11=B. B. King - Please Love Me
TTITLE12=Bo Diddley - Diddley Daddy
TTITLE13=John Lee Hooker - Driftin' From Door To Door
TTITLE14=Muddy Waters - I Can't Be Satisfied
TTITLE15=Howlin' Wolf - Who's Been Talkin'
TTITLE16=B. B. King - The Letter
TTITLE17=Bo Diddley - I'm Looking For A Woman
EXTD=
EXTT0=
EXTT1=
EXTT2=
EXTT3=
EXTT4=
EXTT5=
EXTT6=
EXTT7=
EXTT8=
EXTT9=
EXTT10=
EXTT11=
EXTT12=
EXTT13=
EXTT14=
EXTT15=
EXTT16=
EXTT17=
PLAYORDER=
